<svg width="485.8" height="83.401" viewBox="0 0 485.8 83.401" xmlns="http://www.w3.org/2000/svg"><g id="svgGroup" stroke-linecap="round" fill-rule="evenodd" font-size="9pt" stroke="#FFFFFF" stroke-width="0.1mm" fill="#FFFFFF" style="stroke:#FFFFFF;stroke-width:0.1mm;fill:#FFFFFF"><path d="M 408.1 61.8 L 411.1 61 A 12.483 12.483 0 0 0 416.06 69.39 A 17.5 17.5 0 0 0 417.35 70.3 A 20.844 20.844 0 0 0 423.754 72.973 Q 427.166 73.8 431.3 73.8 A 34.29 34.29 0 0 0 436.782 73.383 A 25.14 25.14 0 0 0 442.2 71.9 A 19.846 19.846 0 0 0 446.028 69.871 A 15.112 15.112 0 0 0 449.5 66.6 Q 452.1 63.2 452.1 58.8 A 13.011 13.011 0 0 0 451.341 54.265 A 11.363 11.363 0 0 0 447.5 49.15 A 26.095 26.095 0 0 0 443.191 46.492 Q 440.962 45.38 438.253 44.454 A 56.158 56.158 0 0 0 434.8 43.4 L 428.7 41.7 A 64.801 64.801 0 0 1 422.691 39.728 Q 419.802 38.61 417.473 37.317 A 27.402 27.402 0 0 1 413.8 34.9 A 13.02 13.02 0 0 1 408.662 25.456 A 16.703 16.703 0 0 1 408.6 24 Q 408.6 18.9 411.55 15 A 18.448 18.448 0 0 1 416.67 10.418 A 23.867 23.867 0 0 1 419.7 8.85 A 27.289 27.289 0 0 1 427.369 6.831 A 34.251 34.251 0 0 1 431.4 6.6 A 34.577 34.577 0 0 1 437.358 7.092 A 27.042 27.042 0 0 1 442.35 8.45 A 22.318 22.318 0 0 1 447.131 10.937 A 18.624 18.624 0 0 1 450.3 13.7 Q 453.4 17.1 454.1 21.6 L 451.1 22.4 Q 450.4 16.6 444.95 13.1 A 21.293 21.293 0 0 0 437.872 10.247 Q 435.067 9.641 431.833 9.603 A 36.999 36.999 0 0 0 431.4 9.6 A 30.106 30.106 0 0 0 425.841 10.092 A 23.644 23.644 0 0 0 421.2 11.45 A 19.597 19.597 0 0 0 417.41 13.492 A 15.107 15.107 0 0 0 414.15 16.55 Q 411.6 19.8 411.6 24 A 11.427 11.427 0 0 0 412.44 28.456 Q 413.555 31.118 416.15 33 Q 420.7 36.3 429.4 38.8 L 435.4 40.5 A 57.295 57.295 0 0 1 441.309 42.483 Q 444.303 43.685 446.706 45.124 A 26.754 26.754 0 0 1 449.9 47.35 A 13.764 13.764 0 0 1 455.05 57.422 A 18.807 18.807 0 0 1 455.1 58.8 A 15.814 15.814 0 0 1 453.869 65.078 A 15.145 15.145 0 0 1 452.1 68.15 A 18.525 18.525 0 0 1 446.864 72.892 A 23.912 23.912 0 0 1 443.75 74.5 A 27.502 27.502 0 0 1 437.178 76.36 A 37.466 37.466 0 0 1 431.3 76.8 A 35.246 35.246 0 0 1 424.166 76.116 Q 419.32 75.115 415.55 72.65 Q 409.2 68.5 408.1 61.8 Z M 414.6 60.1 L 417.5 59.3 Q 417.5 62.7 421.35 64.95 A 15.209 15.209 0 0 0 425.415 66.556 Q 428.036 67.2 431.3 67.2 A 28.245 28.245 0 0 0 435.525 66.903 Q 439.02 66.374 441.55 64.9 A 10.479 10.479 0 0 0 443.459 63.504 Q 444.623 62.411 445.123 61.1 A 5.841 5.841 0 0 0 445.5 59 A 5.966 5.966 0 0 0 443.321 54.334 A 9.226 9.226 0 0 0 442.2 53.5 A 22.926 22.926 0 0 0 439.42 52.011 Q 436.785 50.807 433.2 49.8 L 427 48 Q 414.6 44.4 408.3 38.9 A 18.048 18.048 0 0 1 402.24 27.394 A 25.941 25.941 0 0 1 402 23.8 Q 402 16.9 405.85 11.55 A 25.317 25.317 0 0 1 413.575 4.564 A 31.225 31.225 0 0 1 416.35 3.1 A 33.005 33.005 0 0 1 426.321 0.303 A 41.47 41.47 0 0 1 431.4 0 A 40.669 40.669 0 0 1 439.385 0.754 A 33.057 33.057 0 0 1 445.15 2.45 A 28.342 28.342 0 0 1 452.017 6.314 A 25.084 25.084 0 0 1 455.35 9.4 Q 459.4 13.9 460.5 19.9 L 457.6 20.7 Q 456.7 15.4 453.1 11.4 Q 449.5 7.4 443.9 5.2 A 31.693 31.693 0 0 0 435.788 3.237 A 39.586 39.586 0 0 0 431.4 3 A 35.935 35.935 0 0 0 424.001 3.732 A 28.648 28.648 0 0 0 417.85 5.75 A 26.069 26.069 0 0 0 412.234 9.223 A 21.821 21.821 0 0 0 408.45 13.2 Q 405 17.9 405 24 A 18.95 18.95 0 0 0 405.949 30.127 A 15.888 15.888 0 0 0 410.75 37.15 A 29.009 29.009 0 0 0 415.843 40.603 Q 420.737 43.263 427.8 45.2 L 434 46.9 A 52.584 52.584 0 0 1 438.286 48.267 Q 440.231 48.987 441.835 49.796 A 22.183 22.183 0 0 1 444.7 51.5 A 9.264 9.264 0 0 1 447.23 54.117 Q 448.421 56.015 448.495 58.47 A 10.894 10.894 0 0 1 448.5 58.8 Q 448.5 63.9 443.8 67.05 A 17.144 17.144 0 0 1 438.713 69.311 Q 435.444 70.2 431.3 70.2 A 30.161 30.161 0 0 1 426.327 69.814 Q 422.475 69.169 419.6 67.45 A 12.158 12.158 0 0 1 416.983 65.394 A 8.58 8.58 0 0 1 414.6 60.1 Z M 401.7 63.5 L 404.6 62.7 Q 405.6 68.1 409.15 72.05 A 22.063 22.063 0 0 0 415.047 76.655 A 28.054 28.054 0 0 0 418.4 78.2 A 32.341 32.341 0 0 0 425.904 80.065 A 41.875 41.875 0 0 0 431.3 80.4 Q 439.5 80.4 445.65 77.65 A 25.507 25.507 0 0 0 451.274 74.256 A 21.064 21.064 0 0 0 455.25 70.05 A 18.686 18.686 0 0 0 458.678 59.803 A 23.087 23.087 0 0 0 458.7 58.8 A 19.78 19.78 0 0 0 457.726 52.455 A 16.358 16.358 0 0 0 452.8 45.2 Q 448.214 41.236 440.727 38.48 A 67.428 67.428 0 0 0 436.2 37 L 430.3 35.3 A 71.263 71.263 0 0 1 426.07 33.949 Q 421.959 32.483 419.325 30.843 A 20.252 20.252 0 0 1 419.1 30.7 A 9.551 9.551 0 0 1 416.885 28.787 A 7.252 7.252 0 0 1 415.2 24 A 8.578 8.578 0 0 1 418.295 17.274 A 12.665 12.665 0 0 1 419.8 16.15 A 17.795 17.795 0 0 1 425.457 13.827 Q 428.173 13.2 431.4 13.2 A 27.197 27.197 0 0 1 436.163 13.594 Q 438.899 14.081 441.12 15.171 A 15.347 15.347 0 0 1 442.6 16 A 12.589 12.589 0 0 1 445.272 18.232 A 9.317 9.317 0 0 1 447.6 23.3 L 444.7 24.1 A 6.395 6.395 0 0 0 442.546 19.661 A 10.216 10.216 0 0 0 440.85 18.4 A 14.181 14.181 0 0 0 436.956 16.821 Q 434.481 16.2 431.4 16.2 A 24.128 24.128 0 0 0 427.204 16.547 Q 424.336 17.054 422.05 18.3 Q 419.504 19.689 418.642 21.646 A 5.283 5.283 0 0 0 418.2 23.8 A 4.886 4.886 0 0 0 419.859 27.478 Q 420.531 28.109 421.475 28.648 A 11.424 11.424 0 0 0 421.75 28.8 A 33.658 33.658 0 0 0 424.66 30.169 Q 427.43 31.325 431.1 32.4 L 436.8 34.1 A 70.728 70.728 0 0 1 444.445 36.829 Q 448.189 38.431 451.155 40.326 A 31.777 31.777 0 0 1 455.3 43.45 Q 461.7 49.2 461.7 59 A 22.234 22.234 0 0 1 459.885 68.019 A 21.476 21.476 0 0 1 457.85 71.65 A 24.514 24.514 0 0 1 449.809 78.94 A 30.49 30.49 0 0 1 447.15 80.3 A 34.146 34.146 0 0 1 438.258 82.889 A 45.423 45.423 0 0 1 431.3 83.4 A 42.767 42.767 0 0 1 423.45 82.709 A 34.066 34.066 0 0 1 417.25 80.95 A 29.117 29.117 0 0 1 410.759 77.449 A 24.821 24.821 0 0 1 406.95 74.05 Q 402.9 69.6 401.7 63.5 Z M 304.7 48.3 L 281.2 48.3 L 281.2 45.3 L 304.7 45.3 A 22.454 22.454 0 0 0 311.729 44.224 A 20.412 20.412 0 0 0 315.05 42.8 Q 319.7 40.3 322.45 35.7 A 19.24 19.24 0 0 0 324.931 28.619 A 24.929 24.929 0 0 0 325.2 24.9 Q 325.2 18.7 322.45 14.1 Q 319.7 9.5 315.05 7 A 21.182 21.182 0 0 0 305.934 4.53 A 25.24 25.24 0 0 0 304.7 4.5 L 281.2 4.5 L 281.2 1.5 L 304.7 1.5 A 24.791 24.791 0 0 1 313.45 3.024 A 23.321 23.321 0 0 1 316.55 4.45 Q 321.9 7.4 325.05 12.65 A 22.003 22.003 0 0 1 327.951 21.101 A 28.149 28.149 0 0 1 328.2 24.9 Q 328.2 31.9 325.05 37.15 Q 321.9 42.4 316.55 45.35 A 23.947 23.947 0 0 1 305.508 48.289 A 28.181 28.181 0 0 1 304.7 48.3 Z M 304.7 41.7 L 281.2 41.7 L 281.2 38.7 L 304.7 38.7 A 15.285 15.285 0 0 0 310.139 37.759 A 13.855 13.855 0 0 0 314.55 35.05 A 11.958 11.958 0 0 0 318.31 28.175 A 17.634 17.634 0 0 0 318.6 24.9 A 16.743 16.743 0 0 0 318.083 20.618 A 11.753 11.753 0 0 0 314.55 14.75 Q 310.5 11.1 304.7 11.1 L 281.2 11.1 L 281.2 8.1 L 304.7 8.1 A 18.574 18.574 0 0 1 310.223 8.901 A 16.59 16.59 0 0 1 313.2 10.15 Q 317 12.2 319.3 15.95 Q 321.6 19.7 321.6 24.9 A 19.713 19.713 0 0 1 321.128 29.315 A 15.038 15.038 0 0 1 319.3 33.85 Q 317 37.6 313.2 39.65 A 17.25 17.25 0 0 1 306.004 41.66 A 20.727 20.727 0 0 1 304.7 41.7 Z M 16.2 81.9 L 13.2 81.9 L 13.2 1.5 L 16.2 1.5 L 16.2 81.9 Z M 3 81.9 L 0 81.9 L 0 1.5 L 3 1.5 L 3 81.9 Z M 9.6 81.9 L 6.6 81.9 L 6.6 1.5 L 9.6 1.5 L 9.6 81.9 Z M 89.1 81.9 L 86.1 81.9 L 86.1 1.5 L 89.1 1.5 L 89.1 81.9 Z M 75.9 81.9 L 72.9 81.9 L 72.9 1.5 L 75.9 1.5 L 75.9 81.9 Z M 82.5 81.9 L 79.5 81.9 L 79.5 1.5 L 82.5 1.5 L 82.5 81.9 Z M 149.5 81.9 L 146.5 81.9 L 146.5 1.5 L 149.5 1.5 L 149.5 81.9 Z M 136.3 81.9 L 133.3 81.9 L 133.3 1.5 L 136.3 1.5 L 136.3 81.9 Z M 142.9 81.9 L 139.9 81.9 L 139.9 1.5 L 142.9 1.5 L 142.9 81.9 Z M 175.7 81.9 L 172.7 81.9 L 172.7 1.5 L 175.7 1.5 L 175.7 81.9 Z M 162.5 81.9 L 159.5 81.9 L 159.5 1.5 L 162.5 1.5 L 162.5 81.9 Z M 169.1 81.9 L 166.1 81.9 L 166.1 1.5 L 169.1 1.5 L 169.1 81.9 Z M 277.6 81.9 L 274.6 81.9 L 274.6 1.5 L 277.6 1.5 L 277.6 81.9 Z M 264.4 81.9 L 261.4 81.9 L 261.4 1.5 L 264.4 1.5 L 264.4 81.9 Z M 271 81.9 L 268 81.9 L 268 1.5 L 271 1.5 L 271 81.9 Z M 352.1 81.9 L 349.1 81.9 L 349.1 1.5 L 352.1 1.5 L 352.1 81.9 Z M 338.9 81.9 L 335.9 81.9 L 335.9 1.5 L 338.9 1.5 L 338.9 81.9 Z M 345.5 81.9 L 342.5 81.9 L 342.5 1.5 L 345.5 1.5 L 345.5 81.9 Z M 485.8 81.9 L 482.8 81.9 L 482.8 1.5 L 485.8 1.5 L 485.8 81.9 Z M 472.6 81.9 L 469.6 81.9 L 469.6 1.5 L 472.6 1.5 L 472.6 81.9 Z M 479.2 81.9 L 476.2 81.9 L 476.2 1.5 L 479.2 1.5 L 479.2 81.9 Z M 304.7 35.1 L 281.2 35.1 L 281.2 32.1 L 304.7 32.1 A 8.579 8.579 0 0 0 307.558 31.639 A 7.584 7.584 0 0 0 309.85 30.35 Q 311.807 28.757 311.983 25.549 A 11.866 11.866 0 0 0 312 24.9 Q 312 22.412 311.078 20.825 A 4.991 4.991 0 0 0 309.85 19.4 A 7.873 7.873 0 0 0 305.437 17.727 A 10.058 10.058 0 0 0 304.7 17.7 L 281.2 17.7 L 281.2 14.7 L 304.7 14.7 A 11.795 11.795 0 0 1 308.618 15.33 A 10.333 10.333 0 0 1 312 17.3 A 8.363 8.363 0 0 1 314.641 21.73 Q 315 23.172 315 24.9 A 13.281 13.281 0 0 1 314.677 27.923 Q 314.165 30.112 312.844 31.653 A 8.089 8.089 0 0 1 312 32.5 A 10.587 10.587 0 0 1 305.495 35.078 A 13.646 13.646 0 0 1 304.7 35.1 Z M 67.7 81.9 L 63.9 81.9 L 24.9 31.4 L 26.8 28.9 L 67.7 81.9 Z M 227.2 81.9 L 223.4 81.9 L 184.4 31.4 L 186.3 28.9 L 227.2 81.9 Z M 59.4 81.9 L 55.6 81.9 L 20.9 37 L 22.8 34.4 L 59.4 81.9 Z M 218.9 81.9 L 215.1 81.9 L 180.4 37 L 182.3 34.4 L 218.9 81.9 Z M 51 81.9 L 47.2 81.9 L 16.9 42.6 L 18.7 40.1 L 51 81.9 Z M 210.5 81.9 L 206.7 81.9 L 176.4 42.6 L 178.2 40.1 L 210.5 81.9 Z M 66.7 1.5 L 39.3 39.1 L 37.4 36.6 L 63 1.5 L 66.7 1.5 Z M 226.2 1.5 L 198.8 39.1 L 196.9 36.6 L 222.5 1.5 L 226.2 1.5 Z M 395.6 4.5 L 355.7 4.5 L 355.7 1.5 L 395.6 1.5 L 395.6 4.5 Z M 395.6 11.1 L 355.7 11.1 L 355.7 8.1 L 395.6 8.1 L 395.6 11.1 Z M 395.6 17.7 L 355.7 17.7 L 355.7 14.7 L 395.6 14.7 L 395.6 17.7 Z M 395.6 68.7 L 355.7 68.7 L 355.7 65.7 L 395.6 65.7 L 395.6 68.7 Z M 395.6 75.3 L 355.7 75.3 L 355.7 72.3 L 395.6 72.3 L 395.6 75.3 Z M 395.6 81.9 L 355.7 81.9 L 355.7 78.9 L 395.6 78.9 L 395.6 81.9 Z M 58.5 1.5 L 35.1 33.7 L 33.2 31.2 L 54.8 1.5 L 58.5 1.5 Z M 218 1.5 L 194.6 33.7 L 192.7 31.2 L 214.3 1.5 L 218 1.5 Z M 327.4 81.9 L 324.1 81.9 L 310 51 Q 310.7 50.9 311.45 50.75 Q 312.2 50.6 312.9 50.3 L 327.4 81.9 Z M 126.9 68.7 L 92.7 68.7 L 92.7 65.7 L 126.9 65.7 L 126.9 68.7 Z M 126.9 75.3 L 92.7 75.3 L 92.7 72.3 L 126.9 72.3 L 126.9 75.3 Z M 126.9 81.9 L 92.7 81.9 L 92.7 78.9 L 126.9 78.9 L 126.9 81.9 Z M 389.9 36.6 L 355.7 36.6 L 355.7 33.6 L 389.9 33.6 L 389.9 36.6 Z M 389.9 43.2 L 355.7 43.2 L 355.7 40.2 L 389.9 40.2 L 389.9 43.2 Z M 389.9 49.8 L 355.7 49.8 L 355.7 46.8 L 389.9 46.8 L 389.9 49.8 Z M 320.1 81.9 L 316.8 81.9 L 302.9 51.7 A 27.787 27.787 0 0 0 304.338 51.662 A 30.51 30.51 0 0 0 304.55 51.65 Q 305.4 51.6 306.2 51.5 L 320.1 81.9 Z M 312.8 81.9 L 309.5 81.9 L 295.7 51.8 L 299 51.8 L 312.8 81.9 Z M 50.3 1.5 L 30.9 28.3 L 29 25.8 L 46.6 1.5 L 50.3 1.5 Z M 209.8 1.5 L 190.4 28.3 L 188.5 25.8 L 206.1 1.5 L 209.8 1.5 Z" vector-effect="non-scaling-stroke"/></g></svg>