<?xml version="1.0" encoding="UTF-8"?>
<!DOCTYPE svg PUBLIC "-//W3C//DTD SVG 1.1//EN" "http://www.w3.org/Graphics/SVG/1.1/DTD/svg11.dtd">
<!-- Creator: CorelDRAW 2019 (64-Bit) -->
<svg xmlns="http://www.w3.org/2000/svg" xml:space="preserve" width="42.3332mm" height="42.3332mm" version="1.1" style="shape-rendering:geometricPrecision; text-rendering:geometricPrecision; image-rendering:optimizeQuality; fill-rule:evenodd; clip-rule:evenodd"
viewBox="0 0 4233.32 4233.32"
 xmlns:xlink="http://www.w3.org/1999/xlink"
 xmlns:xodm="http://www.corel.com/coreldraw/odm/2003">
 <defs>
  <style type="text/css">
   <![CDATA[
    .fil0 {fill:#ED1A77}
    .fil1 {fill:white}
   ]]>
  </style>
 </defs>
 <g id="Layer_x0020_1">
  <metadata id="CorelCorpID_0Corel-Layer"/>
  <rect class="fil0" x="-4.23" y="-4.25" width="4233.33" height="4233.33" rx="438.51" ry="440.27"/>
  <g id="_2251571696576">
   <path class="fil1" d="M1735.85 2059.51c-47.2,0 -122.47,28.53 -126.3,74.01 -2.42,28.7 29.78,45.51 56.24,34.31 20.4,-8.64 38.03,-31.98 66.39,-31.98 32.96,0 58.75,18.89 60.25,49.09 0.58,11.74 -6.92,8.4 -18.09,8.35 -20.3,-0.08 -59.02,-0.68 -75.67,1.76 -160.79,23.63 -124.85,200.54 -4.97,200.54 47.09,0 89.85,-5.3 133.78,-5.56 55.75,-0.33 54.71,-32.24 54.71,-73.35l0 -98.96c0,-55.92 -7.32,-84.51 -37.32,-114.53 -23,-23.02 -62.43,-43.68 -109.02,-43.68zm9.16 268.16c-30.53,0 -65.81,-4.55 -65.73,-36.66 0.07,-31.54 36.22,-34.7 67.51,-34.7 55.64,0 46.17,-14.76 45.62,63.86 -10.92,9.3 -30.39,7.5 -47.4,7.5zm882.94 -135.72c0,-33.17 26.58,-57.78 60.89,-56.65 45.74,1.51 69.32,53.46 53.06,56.54l-113.95 0.11zm0.17 67.65c36.11,0 72.22,0 108.32,0 33.97,0 72.59,5.26 89.78,-16.23 15.81,-19.76 10.81,-67.39 2.02,-91.78 -37.52,-104.05 -197.83,-129.97 -267.96,-27.55 -16.54,24.16 -21.59,47.9 -21.85,84.51 -0.26,37.33 -2.45,68.64 9.59,98.61 32.18,80.1 135.7,106.89 219.38,75.35 95.08,-35.84 50.81,-115.84 -6.85,-85.65 -23.14,12.11 -47.42,27.72 -83.7,20.75 -28.58,-5.49 -48.98,-25.51 -48.73,-58.01zm-609.94 -47.38c0,-46.26 8.49,-70.87 56.7,-70.87 35.24,0 55.1,12.73 56.95,48.8 1.69,32.97 0.13,67.62 0.13,99.04 0,47.29 -7.57,90.87 30.42,103.07 25.72,8.25 59.11,-5.51 59.11,-46.26l0 -142.94c0,-81.32 -45.74,-135.62 -128.29,-135.62l-34.82 0c-67.58,0 -128.28,35.36 -128.28,104.46l0 179.6c0,57.03 92.13,58.45 88.6,-5.5 -1.82,-35.46 -0.52,-95.79 -0.52,-133.78zm374.12 -61.93c23.34,-1.34 50.33,1.64 72.89,-0.54 46.88,-4.54 45.66,-72.39 -1.73,-74.99 -23.01,-1.26 -47.76,-0.59 -70.94,-0.59 -2.55,-18.96 11.28,-81.69 -44.57,-82.04 -53.59,-0.33 -44.6,54.24 -44.6,80.34 -14.77,3.75 -25.32,1.52 -36.23,9.47 -19.11,13.92 -19.73,45.67 -0.98,60 13.23,10.11 23.31,4.94 34.15,9.43 6.76,9.46 3.06,34.14 3.06,48.02 0,49.34 -5.51,101.34 15.95,136.78 35.95,59.41 89.25,54.33 147.75,54.43 44.6,0.07 50.35,-35.15 40.96,-54.38 -13.46,-27.59 -43.67,-21.38 -79.46,-21.35 -39.87,0.03 -36.63,-28 -36.63,-64.17 0,-31.66 -1.87,-69.5 0.38,-100.41zm545.88 -78.62l0.78 0c19.64,0 36.44,12.77 42.51,30.42 4.44,2.25 8.58,0.84 12.38,-4.74 23.8,-34.52 90.79,-42.62 115.11,-16.15 17.78,20.6 12.62,54.31 -20.28,62.2 -33.25,7.1 -61.35,-7.22 -86.93,16.15 -9.14,8.17 -16.33,17.84 -17.87,33.42l0 155.39c0,24.71 -20.21,44.93 -44.92,44.93l-0.78 0c-24.71,0 -44.92,-20.22 -44.92,-44.93l0 -231.77c0,-24.71 20.21,-44.92 44.92,-44.92z"/>
   <path class="fil1" d="M3269.72 2257.44c13.96,-1.89 30.77,-1 45.85,-1.15 11.61,-0.12 14.66,-2.47 15,8.92 0.52,17.04 3.2,54.96 -5.36,59.23 -2.74,1.37 -99.92,16.5 -106.72,-26.2 -6.52,-40.91 35.58,-38.69 51.23,-40.8zm58.66 -64.89c-28.81,7.47 -116.38,-17.43 -172.98,39.11 -52.01,51.95 -33.56,170.41 99.74,163.69 32.52,-1.64 66.56,-3.92 98.86,-5.1 19,-0.68 32.61,0.43 45.89,-7.57 10.81,-6.5 18.45,-16.59 19.94,-33.04 2.7,-29.82 0.17,-73.15 0.17,-104.43 0,-65.14 4.48,-116.17 -55.42,-157.17 -94.25,-64.49 -213.46,-5.06 -216.35,45.3 -1.88,32.77 33.98,47.04 60.28,32.34 22.31,-12.48 38.81,-34.16 74.18,-28.83 17.76,2.68 25.85,7.96 35.24,18.02 6.09,6.55 11.1,16.92 12.16,26.34 1.25,11.15 -1.7,11.33 -1.71,11.34zm430.9 65.14c14.16,-1.95 30.04,-1.26 45.58,-1.4 10.15,-0.09 15.08,-2.18 15.96,7.29 0.55,5.82 -0.07,15.67 -0.07,21.94 0,12.54 4.24,33.95 -6.32,38.9 -3.45,1.62 -98.32,16.62 -106.36,-26.38 -7.81,-41.8 42.16,-39.11 51.21,-40.35zm59.64 -64.39c-76.37,0 -131.19,-4.26 -174.03,38.56 -43.05,43.03 -31.2,112.56 13.41,143.42 24.58,17.01 46.99,21.81 86.15,20.1 32.16,-1.4 65.97,-3.83 98.85,-5.11 21.99,-0.86 64.36,0.95 66.04,-40.53 1.37,-33.78 0.07,-70.44 0.07,-104.53 0,-34.36 2.72,-69.91 -8.15,-98.25 -30.13,-78.58 -125.99,-108.09 -213.02,-69.73 -19.22,8.47 -48.88,30.97 -50.44,56.12 -2,32.31 33.24,46.72 60.2,32.49 21.79,-11.5 38.17,-34.57 74.05,-29.06 27.24,4.18 51.97,23.94 46.87,56.52zm-253.91 237c4.97,-29.26 1.81,-285.04 1.73,-320.73 -0.11,-54.5 -74.31,-58.15 -86.49,-12.97 -7.85,29.11 2.77,263.27 -1.93,319.02 -2.5,29.69 -16.93,33.09 -47.33,32.99 -52.62,-0.17 -54.95,43.87 -38.05,63.69 18.02,21.15 79.73,12.03 99.32,4.99 38.16,-13.72 65.15,-42.24 72.75,-86.99zm-42.38 -500.41l-1.84 0c-60.55,0 -60.41,88.71 1.85,88.19 63.08,-0.52 64.97,-88.19 -0.01,-88.19z"/>
   <path class="fil1" d="M776.61 1701.87c-86.68,12.83 -160.62,57.83 -232.63,110.99 -160.39,132.77 -296.04,-89.82 -172.83,-196.2 246.34,-189.68 501.58,-243.52 744.25,-88.66 18.71,13.62 55.18,35.59 72.74,51.09l-282.99 136.63c-47.82,-12.94 -89.58,-17.55 -128.54,-13.85z"/>
   <path class="fil1" d="M1184.87 1576.63c110.06,-38.83 204.7,-79.6 320.54,-111.85 -12.83,-16.43 -25.66,-32.87 -38.49,-49.31 -11.75,-16.08 -1.99,-20.97 20.28,-17.35 121.86,19.7 243.73,39.4 365.6,59.1 31.81,6.35 37.96,18.27 13.74,46.73 -83.84,95.3 -167.68,190.59 -251.52,285.89 -9.98,11.6 -20.04,9.4 -20.62,-15.12 -1.83,-20.16 -3.66,-40.32 -5.5,-60.48 -83.11,20.76 -247.7,79.62 -247.28,79.45l-232.17 105.18c0.16,-0.08 -149.03,79.62 -221.51,121.87 -276.49,159.26 -370.88,422.6 -185.55,525.04 163.2,94.42 426.79,-13.09 470.06,-328.49 11.07,-84.88 -3.08,-219.13 -63,-318.42l232.17 -105.18c62.35,128.63 99.65,297.17 82.35,474.46 -57.92,497.86 -544.22,677.8 -857.65,503.04 -332.42,-183.04 -287.47,-618.26 54.97,-885.14 86.82,-59.62 174.96,-114.44 264.48,-164.29l299.1 -145.13 0 0z"/>
  </g>
 </g>
</svg>
